{
  "accessors": [
    {
      "bufferView": 2,
      "componentType": 5126,
      "count": 65532,
      "max": [
        0.6056600213050842,
        0.5681359767913818,
        1.2412500381469727
      ],
      "min": [
        -0.5135089755058289,
        -0.6415579915046692,
        -0.9242550134658813
      ],
      "type": "VEC3"
    },
    {
      "bufferView": 2,
      "byteOffset": 786384,
      "componentType": 5126,
      "count": 65532,
      "max": [
        0.9999958872795105,
        0.9999931454658508,
        0.9997522234916687
      ],
      "min": [
        -0.9999945163726807,
        -0.9999974966049194,
        -0.9998072385787964
      ],
      "type": "VEC3"
    },
    {
      "bufferView": 1,
      "componentType": 5126,
      "count": 65532,
      "max": [
        0.9824960231781006,
        0.9999489784240723
      ],
      "min": [
        0.014487000182271004,
        1.5999999959603883e-05
      ],
      "type": "VEC2"
    },
    {
      "bufferView": 0,
      "componentType": 5125,
      "count": 365601,
      "type": "SCALAR"
    },
    {
      "bufferView": 2,
      "byteOffset": 1572768,
      "componentType": 5126,
      "count": 56005,
      "max": [
        0.6043919920921326,
        0.5730770230293274,
        1.2412500381469727
      ],
      "min": [
        -0.46529000997543335,
        -0.7993209958076477,
        -0.9242550134658813
      ],
      "type": "VEC3"
    },
    {
      "bufferView": 2,
      "byteOffset": 2244828,
      "componentType": 5126,
      "count": 56005,
      "max": [
        0.9999958872795105,
        0.9999757409095764,
        0.9999144673347473
      ],
      "min": [
        -0.9999913573265076,
        -0.9999983310699463,
        -0.9999642372131348
      ],
      "type": "VEC3"
    },
    {
      "bufferView": 1,
      "byteOffset": 524256,
      "componentType": 5126,
      "count": 56005,
      "max": [
        0.9861339926719666,
        0.9867510199546814
      ],
      "min": [
        2.2000000171829015e-05,
        0.003882999997586012
      ],
      "type": "VEC2"
    },
    {
      "bufferView": 0,
      "byteOffset": 1462404,
      "componentType": 5125,
      "count": 308145,
      "type": "SCALAR"
    }
  ],
  "asset": {
    "extras": {
      "author": "Fabian Mohr (https://sketchfab.com/fabianmohr)",
      "license": "SKETCHFAB Standard (https://sketchfab.com/licenses)",
      "source": "https://sketchfab.com/3d-models/angel-sculpture-6e12f65e16ba4fe69f7470386811103d",
      "title": "Angel sculpture"
    },
    "generator": "Sketchfab-16.51.0",
    "version": "2.0"
  },
  "bufferViews": [
    {
      "buffer": 0,
      "byteLength": 2694984,
      "name": "floatBufferViews",
      "target": 34963
    },
    {
      "buffer": 0,
      "byteLength": 972296,
      "byteOffset": 2694984,
      "byteStride": 8,
      "name": "floatBufferViews",
      "target": 34962
    },
    {
      "buffer": 0,
      "byteLength": 2916888,
      "byteOffset": 3667280,
      "byteStride": 12,
      "name": "floatBufferViews",
      "target": 34962
    }
  ],
  "buffers": [
    {
      "byteLength": 6584168,
      "uri": "scene.bin"
    }
  ],
  "extensionsUsed": [
    "KHR_materials_unlit"
  ],
  "images": [
    {
      "uri": "textures/ostfriedhof-engel-model2-meshmixer-metashape_baseColor.jpeg"
    }
  ],
  "materials": [
    {
      "doubleSided": true,
      "extensions": {
        "KHR_materials_unlit": {}
      },
      "name": "ostfriedhof-engel-model2-meshmixer-metashape",
      "pbrMetallicRoughness": {
        "baseColorTexture": {
          "index": 0
        },
        "metallicFactor": 0.0
      }
    }
  ],
  "meshes": [
    {
      "name": "Object_0",
      "primitives": [
        {
          "attributes": {
            "NORMAL": 1,
            "POSITION": 0,
            "TEXCOORD_0": 2
          },
          "indices": 3,
          "material": 0,
          "mode": 4
        }
      ]
    },
    {
      "name": "Object_1",
      "primitives": [
        {
          "attributes": {
            "NORMAL": 5,
            "POSITION": 4,
            "TEXCOORD_0": 6
          },
          "indices": 7,
          "material": 0,
          "mode": 4
        }
      ]
    }
  ],
  "nodes": [
    {
      "children": [
        1
      ],
      "matrix": [
        0.9999977350234985,
        -0.0019327600020915272,
        0.0009152009733952578,
        0.0,
        0.0008116301614791155,
        -0.05292416736483552,
        -0.9985982179641724,
        0.0,
        0.0019784870091825724,
        0.9985966682434082,
        -0.052922476083040015,
        0.0,
        0.0,
        0.0,
        0.0,
        1.0
      ],
      "name": "Sketchfab_model"
    },
    {
      "children": [
        2,
        3
      ],
      "name": "ostfriedhof-engel-model2-meshmixer-metashape.obj.cleaner.materialmerger.gles"
    },
    {
      "mesh": 0,
      "name": "Object_2"
    },
    {
      "mesh": 1,
      "name": "Object_3"
    }
  ],
  "samplers": [
    {
      "magFilter": 9729,
      "minFilter": 9987,
      "wrapS": 10497,
      "wrapT": 10497
    }
  ],
  "scene": 0,
  "scenes": [
    {
      "name": "Sketchfab_Scene",
      "nodes": [
        0
      ]
    }
  ],
  "textures": [
    {
      "sampler": 0,
      "source": 0
    }
  ]
}
